<svg xmlns="http://www.w3.org/2000/svg" version="1.1" xmlns:xlink="http://www.w3.org/1999/xlink" xmlns:svgjs="http://svgjs.dev/svgjs" width="1920" height="1080" preserveAspectRatio="none" viewBox="0 0 1920 1080"><g mask="url(&quot;#SvgjsMask1034&quot;)" fill="none"><rect width="1920" height="1080" x="0" y="0" fill="rgba(255, 255, 255, 1)"></rect><path d="M1424.21 603.1L1523.21 603.1L1523.21 702.1L1424.21 702.1z" stroke="rgba(253, 154, 113, 1)"></path><path d="M626.22 316.74L698.21 316.74L698.21 388.73L626.22 388.73z" stroke="rgba(254, 200, 113, 1)"></path><path d="M341.35 208.93L370.03 208.93L370.03 246.7L341.35 246.7z" fill="rgba(180, 144, 251, 1)"></path><path d="M523.86 96.51L529.97 96.51L529.97 102.62L523.86 102.62z" fill="rgba(227, 237, 142, 1)"></path><path d="M1767.03 262.58a69.95 69.95 0 1 0 119.96 71.98z" stroke="rgba(0, 211, 254, 1)"></path><path d="M324.79 877.1L425.01 877.1L425.01 963.73L324.79 963.73z" fill="rgba(0, 211, 254, 1)"></path><path d="M1063.16 1021.98a2.45 2.45 0 1 0-0.11-4.9z" stroke="rgba(0, 211, 254, 1)"></path><path d="M1174.57 923.26a0.48 0.48 0 1 0 0.76-0.58z" stroke="rgba(180, 144, 251, 1)"></path><path d="M1414.94 194.11L1418.16 194.11L1418.16 197.33L1414.94 197.33z" stroke="rgba(253, 154, 113, 1)"></path><path d="M1761.02 180.09L1867.76 180.09L1867.76 255.07L1761.02 255.07z" fill="rgba(254, 200, 113, 1)"></path><path d="M1241.66 200.47a22.22 22.22 0 1 0-20.48-39.44z" stroke="rgba(180, 144, 251, 1)"></path><path d="M1127.38 78.12L1167.45 78.12L1167.45 141.66L1127.38 141.66z" fill="rgba(254, 200, 113, 1)"></path><path d="M1736.47 899.87L1782.56 899.87L1782.56 948.76L1736.47 948.76z" fill="rgba(227, 237, 142, 1)"></path><path d="M1821.53 155.76L1890.03 155.76L1890.03 172L1821.53 172z" stroke="rgba(0, 211, 254, 1)"></path><path d="M195.93 911.7 a52.82 52.82 0 1 0 105.64 0 a52.82 52.82 0 1 0 -105.64 0z" fill="rgba(254, 200, 113, 1)"></path><path d="M416.25 343.45L496.62 343.45L496.62 427.97L416.25 427.97z" stroke="rgba(0, 211, 254, 1)"></path><path d="M1833.18 904.39a25.04 25.04 0 1 0 27.96-41.55z" fill="rgba(180, 144, 251, 1)"></path><path d="M700.04 335.99L742.92 335.99L742.92 378.87L700.04 378.87z" stroke="rgba(0, 211, 254, 1)"></path><path d="M1265.8 818.01L1315.61 818.01L1315.61 834.08L1265.8 834.08z" fill="rgba(254, 200, 113, 1)"></path><path d="M1530.76 839 a60.37 60.37 0 1 0 120.74 0 a60.37 60.37 0 1 0 -120.74 0z" fill="rgba(254, 200, 113, 1)"></path><path d="M1524.3 51.29a83.94 83.94 0 1 0 11.44 167.49z" stroke="rgba(254, 200, 113, 1)"></path><path d="M99.73 896.19L133.18 896.19L133.18 922.66L99.73 922.66z" stroke="rgba(254, 200, 113, 1)"></path><path d="M1700.63 608.25L1732.75 608.25L1732.75 707.62L1700.63 707.62z" fill="rgba(180, 144, 251, 1)"></path></g><defs><mask id="SvgjsMask1034"><rect width="1920" height="1080" fill="#ffffff"></rect></mask></defs></svg>